<mxfile host="app.diagrams.net" agent="Mozilla/5.0 (Windows NT 10.0; Win64; x64) AppleWebKit/537.36 (KHTML, like Gecko) Chrome/129.0.0.0 Safari/537.36" version="24.7.17">
  <diagram name="Página-1" id="Szf6tu0fgW7kbvVXYHpb">
    <mxGraphModel grid="1" page="1" gridSize="10" guides="1" tooltips="1" connect="1" arrows="1" fold="1" pageScale="1" pageWidth="827" pageHeight="1169" math="0" shadow="0">
      <root>
        <mxCell id="0" />
        <mxCell id="1" parent="0" />
        <mxCell id="SEY4O299X5F5Scpz_E97-1" value="Inicio" style="ellipse;whiteSpace=wrap;html=1;aspect=fixed;fontSize=20;fontFamily=Times New Roman;" vertex="1" parent="1">
          <mxGeometry width="140" height="140" as="geometry" />
        </mxCell>
        <mxCell id="SEY4O299X5F5Scpz_E97-2" value="&lt;div&gt;&lt;br&gt;&lt;/div&gt;Fim&lt;div style=&quot;font-size: 20px;&quot;&gt;&lt;br style=&quot;font-size: 20px;&quot;&gt;&lt;/div&gt;" style="ellipse;whiteSpace=wrap;html=1;aspect=fixed;fontSize=20;fontFamily=Times New Roman;" vertex="1" parent="1">
          <mxGeometry x="750" y="660" width="140" height="140" as="geometry" />
        </mxCell>
        <mxCell id="SEY4O299X5F5Scpz_E97-3" value="Entrada de dados" style="shape=parallelogram;perimeter=parallelogramPerimeter;whiteSpace=wrap;html=1;fixedSize=1;fontSize=20;fontFamily=Times New Roman;" vertex="1" parent="1">
          <mxGeometry x="460" y="30" width="211" height="80" as="geometry" />
        </mxCell>
        <mxCell id="SEY4O299X5F5Scpz_E97-4" value="Procedimento" style="rounded=1;whiteSpace=wrap;html=1;fontSize=20;fontFamily=Times New Roman;" vertex="1" parent="1">
          <mxGeometry x="760" y="30" width="210" height="90" as="geometry" />
        </mxCell>
        <mxCell id="SEY4O299X5F5Scpz_E97-5" value="Decisão" style="rhombus;whiteSpace=wrap;html=1;fontSize=20;fontFamily=Times New Roman;" vertex="1" parent="1">
          <mxGeometry x="1350" y="5" width="140" height="140" as="geometry" />
        </mxCell>
        <mxCell id="A7TPZva7InNOKU6XTnLt-5" style="edgeStyle=orthogonalEdgeStyle;rounded=0;orthogonalLoop=1;jettySize=auto;html=1;entryX=0.5;entryY=0;entryDx=0;entryDy=0;" edge="1" parent="1" source="SEY4O299X5F5Scpz_E97-6" target="SEY4O299X5F5Scpz_E97-2">
          <mxGeometry relative="1" as="geometry" />
        </mxCell>
        <mxCell id="SEY4O299X5F5Scpz_E97-6" value="Olá, mundo&amp;nbsp;" style="shape=document;whiteSpace=wrap;html=1;boundedLbl=1;fontSize=20;fontFamily=Times New Roman;" vertex="1" parent="1">
          <mxGeometry x="715" y="480" width="210" height="100" as="geometry" />
        </mxCell>
        <mxCell id="A7TPZva7InNOKU6XTnLt-3" style="edgeStyle=orthogonalEdgeStyle;rounded=0;orthogonalLoop=1;jettySize=auto;html=1;entryX=0.5;entryY=0;entryDx=0;entryDy=0;" edge="1" parent="1" source="SEY4O299X5F5Scpz_E97-7" target="SEY4O299X5F5Scpz_E97-6">
          <mxGeometry relative="1" as="geometry" />
        </mxCell>
        <mxCell id="SEY4O299X5F5Scpz_E97-7" value="Inicio" style="ellipse;whiteSpace=wrap;html=1;aspect=fixed;fontSize=20;fontFamily=Times New Roman;" vertex="1" parent="1">
          <mxGeometry x="750" y="220" width="140" height="140" as="geometry" />
        </mxCell>
        <mxCell id="A7TPZva7InNOKU6XTnLt-6" value="&lt;div&gt;&lt;br&gt;&lt;/div&gt;Fim&lt;div style=&quot;font-size: 20px;&quot;&gt;&lt;br style=&quot;font-size: 20px;&quot;&gt;&lt;/div&gt;" style="ellipse;whiteSpace=wrap;html=1;aspect=fixed;fontSize=20;fontFamily=Times New Roman;" vertex="1" parent="1">
          <mxGeometry x="249" y="5" width="140" height="140" as="geometry" />
        </mxCell>
        <mxCell id="A7TPZva7InNOKU6XTnLt-7" value="Olá, mundo&amp;nbsp;" style="shape=document;whiteSpace=wrap;html=1;boundedLbl=1;fontSize=20;fontFamily=Times New Roman;" vertex="1" parent="1">
          <mxGeometry x="1080" y="30" width="210" height="100" as="geometry" />
        </mxCell>
      </root>
    </mxGraphModel>
  </diagram>
</mxfile>
